<?xml version="1.0" encoding="UTF-8"?>
<svg version="1.1" xmlns="http://www.w3.org/2000/svg" width="225" height="225">
<path d="M0 0 C74.25 0 148.5 0 225 0 C225 74.25 225 148.5 225 225 C150.75 225 76.5 225 0 225 C0 150.75 0 76.5 0 0 Z " fill="#FEFEFE" transform="translate(0,0)"/>
<path d="M0 0 C1.890625 0.234375 1.890625 0.234375 4 1 C4.984375 2.890625 4.984375 2.890625 5.75 5.25 C7.6062069 9.8470124 9.56094966 11.43618989 13.8359375 13.7578125 C18.61540668 16.50126232 22.98089291 20.00424862 25.5 24.9375 C25.665 25.618125 25.83 26.29875 26 27 C26.70125 26.38125 27.4025 25.7625 28.125 25.125 C32.90020638 21.59549963 37.5619664 20.85439296 43.375 20.3125 C49.33271026 19.49730589 52.32365861 17.80065557 56.31640625 13.36328125 C56.87199219 12.91339844 57.42757812 12.46351562 58 12 C60.16568541 12.23189735 61.4439326 12.4439326 63 14 C63.8757887 21.88209826 60.90425166 29.33255235 57.3125 36.25 C51.03220364 43.71846054 44.66051245 48.77515471 35 51 C32.171875 51.09375 32.171875 51.09375 30 51 C30.04640625 51.66902344 30.0928125 52.33804688 30.140625 53.02734375 C30.97071817 75.11375139 21.55489197 97.22359352 6.96264648 113.40600586 C4.00355981 116.25752364 4.00355981 116.25752364 3 120 C4.21558594 120.44730469 5.43117187 120.89460938 6.68359375 121.35546875 C8.26863222 121.96509893 9.85324617 122.57583365 11.4375 123.1875 C12.23994141 123.47947266 13.04238281 123.77144531 13.86914062 124.07226562 C16.04135289 124.92465272 18.02682 125.75314744 20 127 C21.10546875 129.62890625 21.10546875 129.62890625 21 132 C19.56172717 134.2373133 18.48425753 134.86751445 15.9296875 135.56640625 C12.02285292 136.14461777 8.19440146 136.18709336 4.25 136.1875 C3.44014648 136.19467041 2.63029297 136.20184082 1.79589844 136.20922852 C-2.40463564 136.19863822 -5.79071445 135.96722396 -9.75 134.4375 C-13.11101142 133.4706337 -14.03638032 134.01953513 -17.22265625 135.73046875 C-19.05357589 136.91689053 -20.84491421 138.14773216 -22.63110352 139.40039062 C-28.11788479 143.23397539 -33.4895372 145.37686809 -40 147 C-40.83273438 147.22300781 -41.66546875 147.44601563 -42.5234375 147.67578125 C-63.50253403 152.42028462 -83.82323728 147.87994159 -102 137 C-105.20581239 134.86123853 -108.10869292 132.5425502 -111 130 C-111.74507812 129.39671875 -112.49015625 128.7934375 -113.2578125 128.171875 C-129.49624773 114.63067138 -137.08886858 95.43284692 -140 75 C-141.29581338 56.2605449 -135.71515466 39.61720867 -123.37890625 25.40234375 C-114.10390064 16.03595878 -101.05623637 9.28366638 -87.73706055 8.90795898 C-82.76734228 8.95991436 -77.80300553 9.08492352 -72.8359375 9.25390625 C-65.65564682 9.38158924 -60.00647734 8.82711113 -53.38037109 5.96826172 C-48.64938574 4.04384245 -44.25613109 3.88630171 -39.1875 3.9375 C-38.02605469 3.94652344 -36.86460938 3.95554688 -35.66796875 3.96484375 C-34.78753906 3.97644531 -33.90710938 3.98804688 -33 4 C-33 5.32 -33 6.64 -33 8 C-33.825 8.78375 -34.65 9.5675 -35.5 10.375 C-38.22900898 12.77837557 -38.22900898 12.77837557 -38.625 16 C-37.48087745 21.49178823 -33.13209542 23.90213847 -28.86328125 27.09765625 C-23.83496217 30.99670185 -19.52033215 35.41502397 -15.125 40 C-6.10699284 49.39547202 -6.10699284 49.39547202 5 56 C6.32 56 7.64 56 9 56 C9.66 53.03 10.32 50.06 11 47 C10.48050781 46.57589844 9.96101562 46.15179688 9.42578125 45.71484375 C0.86097425 38.51154027 -4.11091976 31.63503958 -5.28515625 20.23046875 C-5.5264843 12.72831408 -4.18691552 6.28037329 0 0 Z " fill="#4D6BFE" transform="translate(151,38)"/>
<path d="M0 0 C9.69078761 3.88438883 18.29556764 8.91192223 26 16 C26.8559375 16.7528125 27.711875 17.505625 28.59375 18.28125 C35.97993153 25.1580397 41.30405984 32.97586679 46.87109375 41.3359375 C58.26527839 58.53267179 58.26527839 58.53267179 73.82421875 71.6796875 C74.54222656 72.11539063 75.26023437 72.55109375 76 73 C76 73.66 76 74.32 76 75 C62.3076411 75.63521253 54.83690878 73.01745818 44.19140625 64.70507812 C33.11264986 55.72274551 33.11264986 55.72274551 20 52 C20.11458693 53.43836751 20.24209116 54.87570966 20.375 56.3125 C20.47941406 57.51326172 20.47941406 57.51326172 20.5859375 58.73828125 C20.89564426 61.27224441 20.89564426 61.27224441 23 64 C22.75 66.625 22.75 66.625 22 69 C17.93012531 71.03493734 13.06165178 70.56390127 8.7578125 69.38671875 C2.30173493 66.77901482 -2.82085717 62.5746372 -8 58 C-8.77601562 57.319375 -9.55203125 56.63875 -10.3515625 55.9375 C-23.59546794 43.55831691 -32.24354976 24.66855675 -33.1796875 6.515625 C-33.18636899 3.6693114 -33.13828882 0.84260355 -33 -2 C-23.58305544 -7.60532414 -9.72316261 -3.45081883 0 0 Z " fill="#FDFDFE" transform="translate(58,95)"/>
<path d="M0 0 C6.55456523 0.34875621 10.16117771 2.20785086 14.8203125 6.80078125 C19.52292006 12.26832313 23.88590129 17.98944606 24.93359375 25.2578125 C21.11724864 27.95170317 18.60399209 28.92501226 13.93359375 28.2578125 C9.94473358 26.10996472 7.58236231 24.47628342 5.93359375 20.2578125 C5.51953125 17.4609375 5.51953125 17.4609375 5.30859375 14.5078125 C5.23382813 13.52296875 5.1590625 12.538125 5.08203125 11.5234375 C5.03304687 10.77578125 4.9840625 10.028125 4.93359375 9.2578125 C1.96359375 8.2678125 -1.00640625 7.2778125 -4.06640625 6.2578125 C-4.06640625 0.50733991 -4.06640625 0.50733991 0 0 Z " fill="#F8F9FE" transform="translate(121.06640625,96.7421875)"/>
<path d="M0 0 C1.32 0.66 2.64 1.32 4 2 C3.34 3.32 2.68 4.64 2 6 C0.68 5.34 -0.64 4.68 -2 4 C-1.34 2.68 -0.68 1.36 0 0 Z " fill="#E6E9FE" transform="translate(119,107)"/>
</svg>
