<?xml version="1.0" encoding="UTF-8"?>
<svg version="1.1" xmlns="http://www.w3.org/2000/svg" width="225" height="225">
<path d="M0 0 C74.25 0 148.5 0 225 0 C225 74.25 225 148.5 225 225 C150.75 225 76.5 225 0 225 C0 150.75 0 76.5 0 0 Z " fill="#010101" transform="translate(0,0)"/>
<path d="M0 0 C0.33 0 0.66 0 1 0 C1 63.03 1 126.06 1 191 C-10.22 191 -21.44 191 -33 191 C-33.31737241 172.5700794 -33.57468344 154.1424077 -33.72537041 135.71043777 C-33.79723086 127.15003124 -33.89499411 118.59145631 -34.05615234 110.03222656 C-34.19673199 102.56230914 -34.28625392 95.0937191 -34.31723893 87.62251544 C-34.33532382 83.67427376 -34.37706927 79.72982535 -34.48022079 75.78281403 C-34.94700263 57.19690925 -33.87544407 43.452358 -20.81027603 29.07282257 C-17.7474207 25.5657576 -15.18674929 21.71406045 -12.5625 17.875 C-11.59088826 16.49704032 -10.61728124 15.12048265 -9.640625 13.74609375 C-6.79414426 9.71834393 -3.99111104 5.66096772 -1.20703125 1.58984375 C-0.80871094 1.06519531 -0.41039062 0.54054688 0 0 Z " fill="#FEFEFE" transform="translate(205,25)"/>
<path d="M0 0 C5.76079781 -0.42403954 11.51235566 -0.73019909 17.28515625 -0.93383789 C19.2418436 -1.01875013 21.19747024 -1.1343578 23.15039062 -1.2824707 C38.88376218 -2.44477755 38.88376218 -2.44477755 44.0222168 1.58648682 C47.6452482 5.5521347 50.24392815 10.00858253 52.74206543 14.73855591 C54.85573649 18.53839498 57.44111485 21.99195588 60 25.5 C61.00216124 26.91513861 62.00241542 28.33163141 63 29.75 C63.495 30.45125 63.99 31.1525 64.5 31.875 C69 38.25 69 38.25 70.49975586 40.37475586 C71.50044188 41.79232654 72.50125583 43.20980692 73.50219727 44.62719727 C75.99275451 48.15430572 78.48111592 51.68292217 80.96484375 55.21484375 C86.07232086 62.47235112 91.22045023 69.69579586 96.4375 76.875 C101.45885213 83.79012777 106.31532243 90.80379465 111.11157227 97.87646484 C115.42209607 104.21159899 119.87513952 110.43335433 124.42382812 116.59960938 C128.54990432 122.23483407 132.30146 128.07684652 136 134 C130.23909484 134.39910348 124.48638411 134.68728804 118.71484375 134.87890625 C116.75833978 134.95881616 114.80277502 135.06761337 112.84960938 135.20703125 C97.12565471 136.30031235 97.12565471 136.30031235 91.96972656 132.50582886 C88.36409136 128.8085116 85.72200083 124.6165999 83.21775818 120.1232605 C81.20553016 116.61477716 78.83662977 113.35971824 76.5 110.0625 C75.59029049 108.73063771 74.68213353 107.39770935 73.77734375 106.0625 C70.91754235 101.86365776 67.99712867 97.70927856 65.0625 93.5625 C64.56363281 92.85746338 64.06476563 92.15242676 63.55078125 91.42602539 C62.53948527 89.99753724 61.5279288 88.56923348 60.51611328 87.14111328 C58.00656077 83.59702704 55.50359782 80.0482939 53 76.5 C52.00003196 75.08331078 51.00003195 73.66664412 50 72.25 C32 46.75 32 46.75 30.49951172 44.62426758 C29.50119046 43.21000622 28.5028182 41.79578086 27.50439453 40.3815918 C24.97828678 36.80341993 22.45311498 33.22459392 19.9296875 29.64453125 C19.42348877 28.92668457 18.91729004 28.20883789 18.39575195 27.46923828 C17.39129256 26.04470878 16.38721612 24.61990917 15.38354492 23.19482422 C12.96015924 19.75831475 10.52389938 16.33237041 8.05859375 12.92578125 C7.59533691 12.28406982 7.13208008 11.6423584 6.65478516 10.98120117 C5.78408108 9.77713368 4.91023979 8.57532623 4.03271484 7.3762207 C2.25292301 4.91312256 0.96869617 2.90608851 0 0 Z " fill="#FCFCFC" transform="translate(19,82)"/>
<path d="M0 0 C1.99142534 0.05019448 3.98297153 0.09581598 5.97460938 0.13671875 C10.84023282 0.24659075 15.70003966 0.41892324 20.5625 0.625 C18.63987346 4.61860725 16.21215733 8.1808538 13.6875 11.8125 C13.2020874 12.5144751 12.7166748 13.2164502 12.21655273 13.93969727 C7.2173425 21.15402099 2.15268851 28.32211741 -2.92138672 35.48388672 C-5.43093923 39.02797296 -7.93390218 42.5767061 -10.4375 46.125 C-11.43746804 47.54168922 -12.43746805 48.95835588 -13.4375 50.375 C-13.9325 51.07625 -14.4275 51.7775 -14.9375 52.5 C-43.4375 92.875 -43.4375 92.875 -44.9387207 95.00170898 C-45.93467727 96.41266098 -46.93060843 97.82363091 -47.92651367 99.23461914 C-50.48816574 102.86387084 -53.05031286 106.49277149 -55.61328125 110.12109375 C-60.90370356 117.61150174 -66.18981647 125.10455213 -71.4375 132.625 C-74.71289262 131.53320246 -75.04825567 131.14205674 -76.85546875 128.4140625 C-77.30188721 127.75124268 -77.74830566 127.08842285 -78.20825195 126.40551758 C-78.67577881 125.69419678 -79.14330566 124.98287598 -79.625 124.25 C-83.65772532 118.1580966 -83.65772532 118.1580966 -88.0078125 112.29296875 C-88.74773437 111.35066406 -89.48765625 110.40835938 -90.25 109.4375 C-90.91644531 108.61894531 -91.58289063 107.80039063 -92.26953125 106.95703125 C-93.4375 104.625 -93.4375 104.625 -92.99609375 102.328125 C-90.81217386 98.54047447 -88.29272847 95.06990591 -85.6875 91.5625 C-84.50519557 89.94887924 -83.32425395 88.33425923 -82.14453125 86.71875 C-81.53303223 85.88214844 -80.9215332 85.04554687 -80.29150391 84.18359375 C-77.26865406 80.0119495 -74.32070913 75.78880964 -71.375 71.5625 C-70.19927522 69.87756476 -69.02349438 68.19266864 -67.84765625 66.5078125 C-67.2767627 65.68958008 -66.70586914 64.87134766 -66.11767578 64.02832031 C-63.52744234 60.32325521 -60.92134623 56.62947372 -58.3125 52.9375 C-57.82515381 52.247771 -57.33780762 51.55804199 -56.83569336 50.84741211 C-55.85899396 49.46541899 -54.88218782 48.08350131 -53.90527344 46.70166016 C-51.41429015 43.17732485 -48.92603486 39.65106434 -46.4375 36.125 C-43.37958251 31.79249077 -40.32128652 27.46025028 -37.26171875 23.12890625 C-36.4737793 22.01322266 -36.4737793 22.01322266 -35.66992188 20.875 C-34.68311102 19.4777457 -33.69614723 18.08059939 -32.70898438 16.68359375 C-32.25201172 16.03648438 -31.79503906 15.389375 -31.32421875 14.72265625 C-30.84202881 14.07748047 -30.35983887 13.43230469 -29.86303711 12.76757812 C-28.3346312 10.61100332 -28.3346312 10.61100332 -27.27954102 7.91992188 C-21.88099761 -3.05384808 -10.55567294 -0.46064279 0 0 Z " fill="#FCFCFC" transform="translate(185.4375,8.375)"/>
<path d="M0 0 C0.66 0 1.32 0 2 0 C3.79225912 2.40476518 5.472529 4.81393476 7.125 7.3125 C11.19168821 13.42410467 11.19168821 13.42410467 15.5390625 19.3359375 C16.26867187 20.27695313 16.99828125 21.21796875 17.75 22.1875 C18.40484375 23.00605469 19.0596875 23.82460937 19.734375 24.66796875 C21 27 21 27 21.0546875 29.2890625 C19.46426462 33.37703835 16.96308298 36.66883512 14.375 40.1875 C13.34085785 41.61828148 12.30700669 43.04927332 11.2734375 44.48046875 C10.72212158 45.20105469 10.17080566 45.92164063 9.6027832 46.6640625 C7.90538073 48.98108694 7.90538073 48.98108694 6.79370117 51.7578125 C5.1714203 55.06153669 3.98978139 56.81081926 1 59 C-5.94424867 60.69349761 -13.36475599 59.93365001 -20.4375 59.625 C-22.42892534 59.57480552 -24.42047153 59.52918402 -26.41210938 59.48828125 C-31.27773282 59.37840925 -36.13753966 59.20607676 -41 59 C-39.07737346 55.00639275 -36.64965733 51.4441462 -34.125 47.8125 C-33.6395874 47.1105249 -33.1541748 46.4085498 -32.65405273 45.68530273 C-27.66685215 38.48831006 -22.61369652 31.33802033 -17.55126953 24.19384766 C-15.93441834 21.90725263 -14.32391181 19.61629648 -12.71484375 17.32421875 C-11.90744751 16.17554321 -11.90744751 16.17554321 -11.08374023 15.00366211 C-10.05732341 13.54307113 -9.03202467 12.08169355 -8.00805664 10.61938477 C-2.62983148 2.97586194 -2.62983148 2.97586194 0 0 Z " fill="#FBFBFB" transform="translate(60,157)"/>
</svg>
